# xmcd
# 
# Track frame offsets:
#     150
#     21444
#     41246
#     63727
#     83738
#     100847
#     119726
#     139537
#     153349
#     171227
#     187246
#     208251
# 
# Disc length: 3045
# 
# Revision: 1
# Processed by: cddbd v1.5.2PL0 Copyright (c) Steve Scherf et al.
# Submitted via: fre:ac v1.0.31
# 
DISCID=b50be30c
DTITLE=Bey Paule Band - Not Goin' Away
DYEAR=2015
DGENRE=R&B
TTITLE0=Black Bottom
TTITLE1=Kiss Me Like You Mean It
TTITLE2=Right In Front of You
TTITLE3=Next To My Heart
TTITLE4=Someone You Use
TTITLE5=This Party's Done
TTITLE6=Nobody's Angel
TTITLE7=Not Goin' Away
TTITLE8=Ballad of the Lover Man
TTITLE9=Noel's Haze
TTITLE10=Don't Ask Me How I Feel
TTITLE11=If I Could Reach Out
EXTD=
EXTT0=
EXTT1=
EXTT2=
EXTT3=
EXTT4=
EXTT5=
EXTT6=
EXTT7=
EXTT8=
EXTT9=
EXTT10=
EXTT11=
PLAYORDER=
